<?xml version="1.0" encoding="UTF-8" standalone="no"?>
<svg
   xmlns:dc="http://purl.org/dc/elements/1.1/"
   xmlns:cc="http://creativecommons.org/ns#"
   xmlns:rdf="http://www.w3.org/1999/02/22-rdf-syntax-ns#"
   xmlns:svg="http://www.w3.org/2000/svg"
   xmlns="http://www.w3.org/2000/svg"
   viewBox="0 0 410.66666 140"
   height="100%"
   width="100%"
   xml:space="preserve"
   id="svg2"
   version="1.1"><metadata
     id="metadata8"><rdf:RDF><cc:Work
         rdf:about=""><dc:format>image/svg+xml</dc:format><dc:type
           rdf:resource="http://purl.org/dc/dcmitype/StillImage" /></cc:Work></rdf:RDF></metadata><defs
     id="defs6"><clipPath
       id="clipPath18"
       clipPathUnits="userSpaceOnUse"><path
         id="path16"
         d="M 0,105 H 308 V 0 H 0 Z" /></clipPath></defs><g
     transform="matrix(1.3333333,0,0,-1.3333333,0,140)"
     id="g10"><g
       id="g12"><g
         clip-path="url(#clipPath18)"
         id="g14"><g
           transform="translate(130.2539,74.0767)"
           id="g20"><path
             id="path22"
             style="fill:#ffffff;fill-opacity:1;fill-rule:nonzero;stroke:none"
             d="m 0,0 c -3.24,0 -4.812,-0.085 -6.622,-0.424 v -19.063 c 0,-0.424 -0.334,-0.848 -0.858,-0.848 h -2.477 c -0.477,0 -0.857,0.382 -0.857,0.848 V 1.101 c 0,0.466 0.333,0.763 0.857,0.975 2.715,1.059 6.002,1.186 9.957,1.186 0.619,0 1,-0.043 1,-0.636 L 1,0.678 C 1,0.211 0.905,0 0,0" /></g><g
           transform="translate(151.207,67.2559)"
           id="g24"><path
             id="path26"
             style="fill:#ffffff;fill-opacity:1;fill-rule:nonzero;stroke:none"
             d="m 0,0 c 0,4.533 -2.048,6.821 -6.241,6.821 -4.097,0 -6.383,-2.457 -6.383,-6.821 V -0.212 H 0 Z m 3.335,-3.05 h -15.959 v -0.508 c 0,-4.872 2.572,-7.117 6.955,-7.117 2.763,0 5.955,0.296 8.147,0.593 h 0.238 c 0.381,0 0.762,-0.17 0.762,-0.593 v -1.441 c 0,-0.551 -0.191,-0.847 -0.953,-0.974 -2.715,-0.466 -5.002,-0.72 -8.194,-0.72 -5.479,0 -11.148,2.33 -11.148,10.463 v 2.966 c 0,6.015 3.763,10.464 10.576,10.464 6.956,0 10.481,-4.406 10.481,-10.422 V -2.118 C 4.24,-2.669 3.906,-3.05 3.335,-3.05" /></g><g
           transform="translate(168.7383,53.4458)"
           id="g28"><path
             id="path30"
             style="fill:#ffffff;fill-opacity:1;fill-rule:nonzero;stroke:none"
             d="m 0,0 c -1.763,0 -5.193,0.169 -7.527,0.635 -0.62,0.127 -1.001,0.382 -1.001,0.847 v 1.483 c 0,0.382 0.381,0.636 0.857,0.636 H -7.48 C -5.193,3.347 -1.716,3.135 0,3.135 c 3.097,0 4.716,0.72 4.716,3.008 0,1.271 -0.858,2.075 -3.573,3.516 l -4.812,2.542 c -2.906,1.567 -4.859,3.388 -4.859,6.057 0,4.406 3.716,5.635 8.623,5.635 2.668,0 5.193,-0.212 7.431,-0.551 0.62,-0.085 0.906,-0.381 0.906,-0.847 v -1.398 c 0,-0.509 -0.333,-0.72 -0.81,-0.72 H 7.48 c -1.668,0.126 -4.717,0.338 -7.385,0.338 -2.668,0 -4.431,-0.296 -4.431,-2.457 0,-1.271 1.096,-2.075 3.287,-3.219 L 3.668,12.54 C 7.622,10.463 8.908,8.642 8.908,6.143 8.908,1.821 5.335,0 0,0" /></g><g
           transform="translate(199.3232,67.2559)"
           id="g32"><path
             id="path34"
             style="fill:#ffffff;fill-opacity:1;fill-rule:nonzero;stroke:none"
             d="m 0,0 c 0,4.533 -2.049,6.821 -6.241,6.821 -4.098,0 -6.384,-2.457 -6.384,-6.821 V -0.212 H 0 Z m 3.334,-3.05 h -15.959 v -0.508 c 0,-4.872 2.572,-7.117 6.955,-7.117 2.764,0 5.955,0.296 8.147,0.593 h 0.238 c 0.382,0 0.763,-0.17 0.763,-0.593 v -1.441 c 0,-0.551 -0.191,-0.847 -0.953,-0.974 -2.716,-0.466 -5.002,-0.72 -8.195,-0.72 -5.478,0 -11.147,2.33 -11.147,10.463 v 2.966 c 0,6.015 3.763,10.464 10.576,10.464 6.955,0 10.48,-4.406 10.48,-10.422 v -1.779 c 0,-0.551 -0.333,-0.932 -0.905,-0.932" /></g><g
           transform="translate(223.2383,64.9683)"
           id="g36"><path
             id="path38"
             style="fill:#ffffff;fill-opacity:1;fill-rule:nonzero;stroke:none"
             d="m 0,0 h -3.525 c -5.765,0 -7.243,-1.101 -7.243,-4.109 V -4.49 c 0,-2.881 1.192,-3.94 6.194,-3.94 1.81,0 3.811,0.212 4.574,0.381 z m 3.478,-10.548 c -2.144,-0.551 -4.622,-0.975 -8.052,-0.975 -7.528,0 -10.433,2.161 -10.433,6.99 v 0.382 c 0,4.659 3.001,6.862 11.482,6.862 H 0 v 1.695 c 0,3.558 -1.382,4.702 -5.098,4.702 -3.096,0 -5.383,-0.085 -7.289,-0.254 -0.572,-0.043 -1.095,0.085 -1.095,0.678 v 1.483 c 0,0.465 0.333,0.72 1,0.804 1.953,0.297 4.144,0.551 7.384,0.551 6.622,0 9.29,-2.965 9.29,-7.964 V -9.616 c 0,-0.509 -0.143,-0.805 -0.714,-0.932" /></g><g
           transform="translate(244.7236,74.0767)"
           id="g40"><path
             id="path42"
             style="fill:#ffffff;fill-opacity:1;fill-rule:nonzero;stroke:none"
             d="m 0,0 c -3.239,0 -4.812,-0.085 -6.622,-0.424 v -19.063 c 0,-0.424 -0.333,-0.848 -0.858,-0.848 h -2.477 c -0.476,0 -0.857,0.382 -0.857,0.848 V 1.101 c 0,0.466 0.334,0.763 0.857,0.975 2.716,1.059 6.003,1.186 9.957,1.186 0.62,0 1.001,-0.043 1.001,-0.636 V 0.678 C 1.001,0.211 0.905,0 0,0" /></g><g
           transform="translate(264.8203,53.9116)"
           id="g44"><path
             id="path46"
             style="fill:#ffffff;fill-opacity:1;fill-rule:nonzero;stroke:none"
             d="m 0,0 c -1.572,-0.254 -3.716,-0.466 -5.955,-0.466 -6.479,0 -10.148,4.067 -10.148,10.294 v 3.305 c 0,6.227 3.622,10.294 10.148,10.294 2.191,0 4.383,-0.212 5.955,-0.466 0.763,-0.127 0.953,-0.339 0.953,-0.932 v -1.525 c 0,-0.424 -0.381,-0.636 -0.809,-0.636 h -0.192 c -2.096,0.212 -3.572,0.297 -5.907,0.297 -3.812,0 -5.955,-2.246 -5.955,-7.032 V 9.828 c 0,-4.745 2.096,-7.032 5.955,-7.032 2.335,0 3.811,0.085 5.907,0.297 h 0.192 c 0.428,0 0.809,-0.212 0.809,-0.636 V 0.932 C 0.953,0.381 0.763,0.127 0,0" /></g><g
           transform="translate(290.2129,53.7422)"
           id="g48"><path
             id="path50"
             style="fill:#ffffff;fill-opacity:1;fill-rule:nonzero;stroke:none"
             d="M 0,0 H -2.287 C -2.811,0 -3.24,0.381 -3.24,0.847 v 14.234 c 0,3.517 -1.905,5.338 -6.193,5.338 -1.906,0 -4.002,-0.254 -5.479,-0.635 V 0.847 C -14.912,0.381 -15.341,0 -15.864,0 h -2.287 c -0.525,0 -0.953,0.381 -0.953,0.847 v 30.205 c 0,0.424 0.334,0.805 0.857,0.805 h 2.43 c 0.476,0 0.905,-0.339 0.905,-0.805 v -8.049 c 1.62,0.339 3.621,0.593 5.479,0.593 7.146,0 10.385,-3.474 10.385,-8.515 V 0.847 C 0.952,0.381 0.523,0 0,0" /></g><g
           transform="translate(133.4932,26.29)"
           id="g52"><path
             id="path54"
             style="fill:#ffffff;fill-opacity:1;fill-rule:nonzero;stroke:none"
             d="m 0,0 h -3.525 c -5.765,0 -7.242,-1.101 -7.242,-4.109 V -4.49 c 0,-2.881 1.191,-3.94 6.194,-3.94 1.81,0 3.811,0.212 4.573,0.381 z m 3.478,-10.548 c -2.144,-0.551 -4.621,-0.974 -8.051,-0.974 -7.528,0 -10.434,2.16 -10.434,6.989 v 0.382 c 0,4.659 3.002,6.862 11.482,6.862 H 0 v 1.695 c 0,3.558 -1.381,4.702 -5.098,4.702 -3.096,0 -5.383,-0.085 -7.288,-0.254 -0.572,-0.042 -1.096,0.085 -1.096,0.678 v 1.483 c 0,0.465 0.333,0.72 1,0.804 1.954,0.297 4.145,0.551 7.384,0.551 6.622,0 9.29,-2.965 9.29,-7.964 V -9.616 c 0,-0.509 -0.142,-0.805 -0.714,-0.932" /></g><g
           transform="translate(155.7412,44.21)"
           id="g56"><path
             id="path58"
             style="fill:#ffffff;fill-opacity:1;fill-rule:nonzero;stroke:none"
             d="m 0,0 h -4.24 c -2.62,0 -3.144,-0.381 -3.144,-2.881 v -2.965 h 7.432 c 0.523,0 0.905,-0.297 0.905,-0.763 v -1.44 c 0,-0.424 -0.382,-0.763 -0.905,-0.763 h -7.432 v -19.487 c 0,-0.466 -0.429,-0.847 -0.953,-0.847 h -2.287 c -0.524,0 -0.953,0.381 -0.953,0.847 v 25.418 c 0,4.533 2.859,5.889 7.337,5.889 1.715,0 3.383,-0.128 4.288,-0.255 C 0.762,2.669 1,2.414 1,2.033 V 0.593 C 1,0.212 0.667,0 0,0" /></g><g
           transform="translate(172.749,44.21)"
           id="g60"><path
             id="path62"
             style="fill:#ffffff;fill-opacity:1;fill-rule:nonzero;stroke:none"
             d="m 0,0 h -4.24 c -2.62,0 -3.145,-0.381 -3.145,-2.881 v -2.965 h 7.433 c 0.523,0 0.905,-0.297 0.905,-0.763 v -1.44 c 0,-0.424 -0.382,-0.763 -0.905,-0.763 h -7.433 v -19.487 c 0,-0.466 -0.428,-0.847 -0.952,-0.847 h -2.287 c -0.524,0 -0.953,0.381 -0.953,0.847 v 25.418 c 0,4.533 2.858,5.889 7.337,5.889 1.715,0 3.383,-0.128 4.288,-0.255 C 0.762,2.669 1,2.414 1,2.033 V 0.593 C 1,0.212 0.667,0 0,0" /></g><g
           transform="translate(181.9424,15.064)"
           id="g64"><path
             id="path66"
             style="fill:#ffffff;fill-opacity:1;fill-rule:nonzero;stroke:none"
             d="m 0,0 h -2.286 c -0.525,0 -0.953,0.381 -0.953,0.847 v 21.606 c 0,0.465 0.428,0.847 0.953,0.847 L 0,23.3 c 0.524,0 0.953,-0.382 0.953,-0.847 V 0.847 C 0.953,0.381 0.524,0 0,0 m 0.096,27.028 h -2.43 c -0.524,0 -0.953,0.381 -0.953,0.847 v 3.389 c 0,0.466 0.429,0.847 0.953,0.847 h 2.43 c 0.523,0 0.953,-0.381 0.953,-0.847 v -3.389 c 0,-0.466 -0.43,-0.847 -0.953,-0.847" /></g><g
           transform="translate(193.7578,15.064)"
           id="g68"><path
             id="path70"
             style="fill:#ffffff;fill-opacity:1;fill-rule:nonzero;stroke:none"
             d="m 0,0 h -2.477 c -0.477,0 -0.858,0.381 -0.858,0.847 v 30.205 c 0,0.424 0.334,0.805 0.858,0.805 H 0 c 0.477,0 0.857,-0.339 0.857,-0.805 V 0.847 C 0.857,0.424 0.524,0 0,0" /></g><g
           transform="translate(205.333,15.064)"
           id="g72"><path
             id="path74"
             style="fill:#ffffff;fill-opacity:1;fill-rule:nonzero;stroke:none"
             d="M 0,0 H -2.286 C -2.81,0 -3.239,0.381 -3.239,0.847 v 21.606 c 0,0.465 0.429,0.847 0.953,0.847 L 0,23.3 c 0.524,0 0.953,-0.382 0.953,-0.847 V 0.847 C 0.953,0.381 0.524,0 0,0 m 0.096,27.028 h -2.43 c -0.524,0 -0.953,0.381 -0.953,0.847 v 3.389 c 0,0.466 0.429,0.847 0.953,0.847 h 2.43 c 0.523,0 0.953,-0.381 0.953,-0.847 v -3.389 c 0,-0.466 -0.43,-0.847 -0.953,-0.847" /></g><g
           transform="translate(227.3916,26.29)"
           id="g76"><path
             id="path78"
             style="fill:#ffffff;fill-opacity:1;fill-rule:nonzero;stroke:none"
             d="m 0,0 h -3.525 c -5.765,0 -7.243,-1.101 -7.243,-4.109 V -4.49 c 0,-2.881 1.192,-3.94 6.194,-3.94 1.81,0 3.811,0.212 4.574,0.381 z m 3.477,-10.548 c -2.143,-0.551 -4.621,-0.974 -8.051,-0.974 -7.528,0 -10.433,2.16 -10.433,6.989 v 0.382 c 0,4.659 3.001,6.862 11.482,6.862 H 0 v 1.695 c 0,3.558 -1.382,4.702 -5.098,4.702 -3.096,0 -5.383,-0.085 -7.289,-0.254 -0.572,-0.042 -1.095,0.085 -1.095,0.678 v 1.483 c 0,0.465 0.333,0.72 1,0.804 1.953,0.297 4.144,0.551 7.384,0.551 6.622,0 9.29,-2.965 9.29,-7.964 V -9.616 c 0,-0.509 -0.143,-0.805 -0.715,-0.932" /></g><g
           transform="translate(249.6865,15.0215)"
           id="g80"><path
             id="path82"
             style="fill:#ffffff;fill-opacity:1;fill-rule:nonzero;stroke:none"
             d="m 0,0 c -0.905,-0.127 -2.858,-0.254 -4.574,-0.254 -4.478,0 -7.051,1.313 -7.051,5.888 v 21.86 c 0,0.423 0.429,0.72 0.953,0.805 l 2.334,0.339 h 0.096 c 0.476,0 0.809,-0.382 0.809,-0.805 V 23.342 H 0 c 0.524,0 0.905,-0.296 0.905,-0.762 V 21.139 C 0.905,20.716 0.524,20.377 0,20.377 H -7.433 V 5.634 c 0,-2.457 0.906,-2.88 3.526,-2.88 h 3.859 c 0.667,0 1,-0.169 1,-0.593 V 0.72 C 0.952,0.339 0.714,0.085 0,0" /></g><g
           transform="translate(270.3105,28.5776)"
           id="g84"><path
             id="path86"
             style="fill:#ffffff;fill-opacity:1;fill-rule:nonzero;stroke:none"
             d="m 0,0 c 0,4.533 -2.049,6.821 -6.241,6.821 -4.098,0 -6.384,-2.457 -6.384,-6.821 V -0.211 H 0 Z m 3.334,-3.05 h -15.959 v -0.508 c 0,-4.872 2.572,-7.117 6.955,-7.117 2.764,0 5.955,0.296 8.147,0.593 h 0.238 c 0.382,0 0.763,-0.169 0.763,-0.593 v -1.441 c 0,-0.551 -0.191,-0.847 -0.953,-0.974 -2.716,-0.466 -5.002,-0.72 -8.195,-0.72 -5.478,0 -11.147,2.33 -11.147,10.463 v 2.966 c 0,6.015 3.763,10.464 10.576,10.464 6.955,0 10.48,-4.406 10.48,-10.422 v -1.779 c 0,-0.55 -0.333,-0.932 -0.905,-0.932" /></g><g
           transform="translate(287.8418,14.7676)"
           id="g88"><path
             id="path90"
             style="fill:#ffffff;fill-opacity:1;fill-rule:nonzero;stroke:none"
             d="m 0,0 c -1.763,0 -5.193,0.169 -7.527,0.635 -0.62,0.127 -1.001,0.382 -1.001,0.847 v 1.483 c 0,0.382 0.381,0.636 0.857,0.636 H -7.48 C -5.193,3.347 -1.716,3.135 0,3.135 c 3.097,0 4.716,0.72 4.716,3.008 0,1.271 -0.858,2.075 -3.573,3.516 L -3.669,12.2 c -2.906,1.568 -4.859,3.389 -4.859,6.058 0,4.406 3.716,5.635 8.623,5.635 2.668,0 5.193,-0.212 7.431,-0.551 0.621,-0.085 0.906,-0.381 0.906,-0.847 v -1.398 c 0,-0.509 -0.333,-0.721 -0.81,-0.721 H 7.479 c -1.668,0.127 -4.716,0.339 -7.384,0.339 -2.668,0 -4.431,-0.296 -4.431,-2.457 0,-1.271 1.096,-2.075 3.287,-3.219 L 3.668,12.54 C 7.622,10.463 8.908,8.642 8.908,6.143 8.908,1.821 5.335,0 0,0" /></g><g
           transform="translate(87.9619,26.1011)"
           id="g92"><path
             id="path94"
             style="fill:#ffffff;fill-opacity:1;fill-rule:nonzero;stroke:none"
             d="m 0,0 h -7.956 c -0.533,0.532 -0.546,2.934 -0.546,4.196 v 10.163 h -14.55 V 0 h -7.47 v 14.359 h -8.353 c -3.748,0 -5.265,-1.884 -5.265,-5.422 V 4.938 c 0,-1.143 -0.108,-4.12 -0.927,-4.938 h -8.119 v 1.09 c 0.995,0 1.58,1.392 1.58,3.27 v 4.959 c 0,4.396 0.926,6.984 4.823,8.065 -2.67,0.572 -5.912,3.437 -5.912,8.446 0,6.115 4.033,12.371 14.387,12.371 6.229,0 9.635,-2.588 11.552,-5.722 1.324,2.483 4.959,5.776 11.334,5.776 8.873,0 13.896,-5.432 13.896,-12.778 V 3.869 C -1.526,2.511 -0.852,1.09 0,1.09 Z M -86.532,-24.154 H 15.719 V 78.097 c -56.472,0 -102.251,-45.78 -102.251,-102.251 m 70.728,55.107 c -3.869,0 -7.248,-2.328 -7.248,-6.458 v -4.25 h 14.55 v 4.495 c 0,4.376 -3.318,6.213 -7.302,6.213 m -22.941,-0.272 c -4.267,0 -6.43,-1.986 -6.43,-5.45 0,-4.029 2.8,-4.986 5.939,-4.986 h 8.714 v 4.168 c 0,4.691 -3.721,6.268 -8.223,6.268" /></g><g
           transform="translate(302.8955,77.3872)"
           id="g96"><path
             id="path98"
             style="fill:#ffffff;fill-opacity:1;fill-rule:nonzero;stroke:none"
             d="M 0,0 V 4.377 H 1.074 L 2.181,0.881 3.25,4.377 H 4.303 V 0 H 3.637 V 3.674 L 2.508,0 H 1.848 L 0.672,3.727 V 0 Z m -2.648,0 v 3.727 h -1.418 v 0.65 h 3.578 v -0.65 h -1.43 V 0 Z" /></g></g></g></g></svg>