<?xml version="1.0" encoding="utf-8"?>
<!-- Generator: Adobe Illustrator 26.0.2, SVG Export Plug-In . SVG Version: 6.00 Build 0)  -->
<svg version="1.1" id="ra-logo" xmlns="http://www.w3.org/2000/svg" xmlns:xlink="http://www.w3.org/1999/xlink" x="0px" y="0px"
	 viewBox="0 0 500 500" style="enable-background:new 0 0 500 500;" xml:space="preserve">
<style type="text/css">
	.st0{fill:#152C4D;}
</style>
<g id="g20_00000001657961507289789790000003431704139982431633_" transform="translate(130.2539,73.0767)">
	<path id="path22_00000156565605948360200910000001783435308348227472_" class="st0" d="M93.7,148.3c-4.4,0-6.6,0.1-9,0.6v25.9
		c0,0.6-0.5,1.2-1.2,1.2h-3.4c-0.7,0-1.2-0.5-1.2-1.2v-28.1c0-0.6,0.5-1,1.2-1.3c3.7-1.4,8.3-1.6,13.7-1.6c0.9,0,1.4,0.1,1.4,0.9
		v2.8c0,0.6-0.1,0.9-1.4,0.9"/>
</g>
<g id="g24_00000121996249839538262010000015842016650698368958_" transform="translate(151.207,66.2559)">
	<path id="path26_00000039134609150505788640000013090405914282387389_" class="st0" d="M102.1,164.3c0-6.2-2.8-9.3-8.5-9.3
		c-5.6,0-8.7,3.4-8.7,9.3v0.3h17.3V164.3z M105.9,168.4H84.8v0.7c0,6.6,3.5,9.7,9.5,9.7c3.8,0,8.1-0.4,11.1-0.8h0.4
		c0.5,0,1,0.2,1,0.8v2c0,0.8-0.3,1.2-1.3,1.3c-3.7,0.6-6.9,1-11.2,1c-7.5,0-15.3-3.2-15.3-14.3V165c0-8.2,5.1-14.3,14.5-14.3
		c9.5,0,14.3,6,14.3,14.2v2.4c0,0.8-0.5,1.3-1.2,1.3"/>
</g>
<g id="g28_00000031200857555205108320000001481338567022999689_" transform="translate(168.7383,52.4458)">
	<path id="path30_00000108305267150635319090000014693797070887313824_" class="st0" d="M108.6,196.7c-2.4,0-7.1-0.2-10.2-0.9
		c-0.8-0.2-1.4-0.5-1.4-1.2v-2c0-0.5,0.5-0.9,1.2-0.9h0.3c3.1,0.3,7.8,0.6,10.2,0.6c4.2,0,6.4-1,6.4-4.1c0-1.7-1.2-2.8-4.9-4.8
		l-6.5-3.5c-3.9-2.2-6.6-4.7-6.6-8.3c0-6,5-7.7,11.7-7.7c3.6,0,7.1,0.3,10.1,0.8c0.8,0.1,1.2,0.5,1.2,1.2v1.9c0,0.7-0.5,1-1.1,1
		h-0.2c-2.3-0.2-6.4-0.5-10-0.5s-6,0.4-6,3.4c0,1.7,1.5,2.8,4.5,4.4l6.4,3.4c5.4,2.9,7.1,5.4,7.1,8.8
		C120.7,194.2,115.8,196.7,108.6,196.7"/>
</g>
<g id="g32_00000088833554673245312560000004577528825877438100_" transform="translate(199.3232,66.2559)">
	<path id="path34_00000137097599471444944560000005641264038527349939_" class="st0" d="M119.2,164.3c0-6.2-2.8-9.3-8.5-9.3
		c-5.6,0-8.7,3.4-8.7,9.3v0.3h17.3V164.3z M124,168.4h-22.1v0.7c0,6.6,3.5,9.7,9.5,9.7c3.8,0,8.1-0.4,11.1-0.8h0.4
		c0.5,0,1,0.2,1,0.8v2c0,0.8-0.3,1.2-1.3,1.3c-3.7,0.6-6.9,1-11.2,1c-7.5,0-15.3-3.2-15.3-14.3V165c0-8.2,5.1-14.3,14.5-14.3
		c9.5,0,14.3,6,14.3,14.2v2.4c0,0.8-0.5,1.3-1.2,1.3"/>
</g>
<g id="g36_00000110439014338261514690000000352452786224816285_" transform="translate(223.2383,63.9683)">
	<path id="path38_00000152239177254805445390000010019890977364580231_" class="st0" d="M127.9,169.7h-4.7c-7.7,0-9.7,1.5-9.7,5.6
		v0.5c0,3.9,1.6,5.4,8.3,5.4c2.4,0,5.1-0.3,6.1-0.5V169.7z M133,184.3c-2.9,0.8-6.3,1.3-11,1.3c-10.3,0-14.3-3-14.3-9.5v-0.8
		c0-6.4,4.1-9.4,15.7-9.4h4.5v-2.3c0-4.9-1.9-6.4-6.9-6.4c-4.2,0-7.3,0.1-9.9,0.3c-0.8,0.1-1.5-0.1-1.5-0.9v-1.7
		c0-0.6,0.5-1,1.4-1.1c2.7-0.4,5.6-0.7,10-0.7c9,0,12.6,4,12.6,10.8V183c0,0.7-0.2,1.1-1,1.3"/>
</g>
<g id="g40_00000118368618782910650050000003161641340181219239_" transform="translate(244.7236,73.0767)">
	<path id="path42_00000114753299571389877980000009841934061434108048_" class="st0" d="M135.6,148.3c-4.4,0-6.6,0.1-9,0.6v25.9
		c0,0.6-0.5,1.2-1.2,1.2H122c-0.7,0-1.2-0.5-1.2-1.2v-28.1c0-0.6,0.5-1,1.2-1.3c3.7-1.4,8.3-1.6,13.7-1.6c0.9,0,1.4,0.1,1.4,0.9v2.8
		c0,0.6-0.1,0.9-1.4,0.9"/>
</g>
<g id="g44_00000130615654289176619430000015563056893752591533_" transform="translate(264.8203,52.9116)">
	<path id="path46_00000092440040545366597760000014682989238166702477_" class="st0" d="M143.8,196c-2.1,0.3-5.1,0.6-8.1,0.6
		c-8.9,0-13.9-5.6-13.9-14.1V178c0-8.4,4.9-13.9,13.7-13.9c3,0,5.9,0.3,8,0.6c1,0.2,1.3,0.5,1.3,1.3v2.4c0,0.6-0.5,0.9-1.1,0.9h-0.3
		c-2.8-0.3-4.8-0.4-7.9-0.4c-5.1,0-8,3.1-8,9.7v4.5c0,6.5,2.8,9.7,8,9.7c3.1,0,5.1-0.1,7.9-0.4h0.3c0.6,0,1.1,0.3,1.1,0.9v1.6
		c0,0.8-0.3,1.1-1.3,1.3"/>
</g>
<g id="g48_00000042727501171255484350000005079411439283582852_" transform="translate(290.2129,52.7422)">
	<path id="path50_00000023257801991943837470000017368972750368674707_" class="st0" d="M153,196.3h-3.5c-0.7,0-1.3-0.5-1.3-1.2
		v-19.4c0-4.8-2.7-7.3-8.7-7.3c-2.7,0-5.6,0.3-7.7,0.9v25.9c0,0.6-0.6,1.1-1.3,1.1h-3.1c-0.7,0-1.3-0.5-1.3-1.1v-40.9
		c0-0.6,0.5-1.1,1.2-1.1h3.3c0.7,0,1.3,0.5,1.3,1.1v11c2.3-0.5,5-0.8,7.6-0.8c9.9,0,14.4,4.7,14.4,11.6v19.2c0,0.6-0.6,1.2-1.3,1.2"
		/>
</g>
<g id="g52_00000101820871969101271820000009970940517235339959_" transform="translate(133.4932,25.29)">
	<path id="path54_00000124149710511350819370000004404219287810672780_" class="st0" d="M94.8,261.2h-4.7c-7.7,0-9.7,1.5-9.7,5.6
		v0.5c0,3.9,1.6,5.4,8.3,5.4c2.4,0,5.1-0.3,6.1-0.5V261.2z M99.9,275.8c-2.9,0.8-6.3,1.3-11,1.3c-10.3,0-14.3-3-14.3-9.5v-0.9
		c0-6.4,4.1-9.4,15.7-9.4h4.5V255c0-4.9-1.9-6.4-6.9-6.4c-4.2,0-7.3,0.1-9.9,0.3c-0.8,0.1-1.5-0.1-1.5-0.9v-1.7c0-0.6,0.5-1,1.4-1.1
		c2.7-0.4,5.6-0.7,10-0.7c9,0,12.6,4,12.6,10.8v19.2c0,0.7-0.2,1.1-1,1.3"/>
</g>
<g id="g56_00000075876610702349739330000016067321088361804681_" transform="translate(155.7412,43.21)">
	<path id="path58_00000115501658361306727850000008832910277814591669_" class="st0" d="M103.3,219.3H98c-3.6,0-4.3,0.5-4.3,3.8v3.9
		H104c0.7,0,1.2,0.4,1.2,1v1.8c0,0.6-0.5,1-1.2,1H93.7v26.7c0,0.6-0.6,1.2-1.3,1.2h-3.1c-0.7,0-1.3-0.5-1.3-1.2v-34.7
		c0-6.2,3.9-8,10.1-8c2.4,0,4.6,0.2,5.9,0.3c1,0.1,1.3,0.5,1.3,1v2.2c0,0.5-0.5,0.8-1.4,0.8"/>
</g>
<g id="g60_00000129179951939033418490000005827199735847960725_" transform="translate(172.749,43.21)">
	<path id="path62_00000119808244948978473930000010827506229491700873_" class="st0" d="M109.3,219.3h-5.3c-3.6,0-4.3,0.5-4.3,3.8
		v3.9H110c0.7,0,1.2,0.4,1.2,1v1.8c0,0.6-0.5,1-1.2,1H99.7v26.7c0,0.6-0.6,1.2-1.3,1.2h-3.1c-0.7,0-1.3-0.5-1.3-1.2v-34.7
		c0-6.2,3.9-8,10.1-8c2.4,0,4.6,0.2,5.9,0.3c1,0.1,1.3,0.5,1.3,1v2.2c0,0.5-0.5,0.8-1.4,0.8"/>
</g>
<g id="g64_00000061431194524800262770000001514931164047000987_" transform="translate(181.9424,14.064)">
	<path id="path66_00000124120682072537654130000012884507999051615365_" class="st0" d="M113.6,287.7h-3.5c-0.7,0-1.3-0.5-1.3-1.2
		v-29.4c0-0.6,0.6-1.2,1.3-1.2h3.1c0.7,0,1.3,0.5,1.3,1.2v29.4c0,0.6-0.6,1.2-1.3,1.2 M113.6,251.3H110c-0.7,0-1.3-0.5-1.3-1.1v-4.5
		c0-0.6,0.6-1.1,1.3-1.1h3.2c0.7,0,1.3,0.5,1.3,1.1v4.5c0,0.6-0.6,1.1-1.3,1.1"/>
</g>
<g id="g68_00000016062350875269590270000006436549979046008491_" transform="translate(193.7578,14.064)">
	<path id="path70_00000082327782924295566130000011449376548735814846_" class="st0" d="M118.1,287.7h-3.6c-0.7,0-1.2-0.5-1.2-1.1
		v-40.9c0-0.6,0.5-1.1,1.2-1.1h3.4c0.7,0,1.2,0.5,1.2,1.1v40.9c0,0.6-0.5,1.1-1.2,1.1"/>
</g>
<g id="g72_00000039122062879261244800000010694656547399309494_" transform="translate(205.333,14.064)">
	<path id="path74_00000057143963496955519100000001274103665419145602_" class="st0" d="M121.8,287.7h-3.5c-0.7,0-1.3-0.5-1.3-1.2
		v-29.4c0-0.6,0.6-1.2,1.3-1.2h3.1c0.7,0,1.3,0.5,1.3,1.2v29.4c0,0.6-0.6,1.2-1.3,1.2 M121.8,251.3h-3.5c-0.7,0-1.3-0.5-1.3-1.1
		v-4.5c0-0.6,0.6-1.1,1.3-1.1h3.2c0.7,0,1.3,0.5,1.3,1.1v4.5c0,0.6-0.6,1.1-1.3,1.1"/>
</g>
<g id="g76_00000078763044557105178600000004362412531500604589_" transform="translate(227.3916,25.29)">
	<path id="path78_00000164474545788680218020000001251474866967683737_" class="st0" d="M129.5,261.2h-4.7c-7.7,0-9.7,1.5-9.7,5.6
		v0.5c0,3.9,1.6,5.4,8.3,5.4c2.4,0,5.1-0.3,6.1-0.5V261.2z M134.6,275.8c-2.9,0.8-6.3,1.3-11,1.3c-10.3,0-14.3-3-14.3-9.5v-0.9
		c0-6.4,4.1-9.4,15.7-9.4h4.5V255c0-4.9-1.9-6.4-6.9-6.4c-4.2,0-7.3,0.1-9.9,0.3c-0.8,0.1-1.5-0.1-1.5-0.9v-1.7c0-0.6,0.5-1,1.4-1.1
		c2.7-0.4,5.6-0.7,10-0.7c9,0,12.6,4,12.6,10.8v19.2c0,0.7-0.2,1.1-1,1.3"/>
</g>
<g id="g80_00000168110094088086407490000003771620635592412565_" transform="translate(249.6865,14.0215)">
	<path id="path82_00000137821816050204073070000002784191329162541490_" class="st0" d="M137.5,288c-1.2,0.2-3.9,0.3-6.2,0.3
		c-6.1,0-9.6-1.8-9.6-8V250c0-0.6,0.6-1,1.3-1.1l3.2-0.5h0.1c0.7,0,1.1,0.5,1.1,1.1v6.6h10.3c0.7,0,1.2,0.4,1.2,1v1.9
		c0,0.5-0.5,1-1.2,1h-10.3V280c0,3.3,1.2,3.9,4.8,3.9h5.3c0.9,0,1.4,0.2,1.4,0.8v2.3C138.9,287.6,138.6,287.9,137.5,288"/>
</g>
<g id="g84_00000099621672902131646190000016689786783108561559_" transform="translate(270.3105,27.5776)">
	<path id="path86_00000033353751355216471410000002928916519235237545_" class="st0" d="M145.1,255.7c0-6.2-2.8-9.3-8.5-9.3
		c-5.6,0-8.7,3.4-8.7,9.3v0.3h17.3V255.7z M149.9,259.8h-22.1v0.7c0,6.6,3.5,9.7,9.5,9.7c3.8,0,8.1-0.4,11.1-0.8h0.4
		c0.5,0,1,0.2,1,0.8v2c0,0.8-0.3,1.2-1.3,1.3c-3.7,0.6-6.9,1-11.2,1c-7.5,0-15.3-3.2-15.3-14.3v-3.8c0-8.2,5.1-14.3,14.5-14.3
		c9.5,0,14.3,6,14.3,14.2v2.4c0,0.8-0.5,1.3-1.2,1.3"/>
</g>
<g id="g88_00000155857215876505315820000014103092845790950791_" transform="translate(287.8418,13.7676)">
	<path id="path90_00000104690746260035968200000009515537160955932343_" class="st0" d="M151.6,289.1c-2.4,0-7.1-0.2-10.2-0.9
		c-0.8-0.2-1.4-0.5-1.4-1.2v-2c0-0.5,0.5-0.9,1.2-0.9h0.3c3.1,0.3,7.8,0.6,10.2,0.6c4.2,0,6.4-1,6.4-4.1c0-1.7-1.2-2.8-4.9-4.8
		l-6.5-3.5c-3.9-2.2-6.6-4.7-6.6-8.3c0-6,5-7.7,11.7-7.7c3.6,0,7.1,0.3,10.1,0.8c0.8,0.1,1.2,0.5,1.2,1.2v1.9c0,0.7-0.5,1-1.1,1
		h-0.2c-2.3-0.2-6.4-0.5-10-0.5c-3.6,0-6,0.4-6,3.4c0,1.7,1.5,2.8,4.5,4.4l6.4,3.4c5.4,2.9,7.1,5.4,7.1,8.8
		C163.7,286.6,158.9,289.1,151.6,289.1"/>
</g>
<g id="g92_00000006677305134996310130000017718178650895999108_" transform="translate(87.9619,25.1011)">
	<path id="path94_00000047742286929526227630000015989283335977651134_" class="st0" d="M79,261.4H68.2c-0.7-0.7-0.8-3.9-0.8-5.6
		v-13.6H47.3v19.2H36.8v-19.2H25.6c-5,0-7,2.5-7,7.2v5.3c0,1.5-0.1,5.5-1.2,6.6H6.1v-1c1.3,0,1.9-4.5,1.9-4.5V249
		c0-6,1.3-9.5,6.6-11c-3.6-0.8-8-4.7-8-11.5c0-8.3,5.5-16.8,19.6-16.8c8.5,0,13.1,3.5,15.7,7.8c1.8-3.4,6.7-7.9,15.4-7.9
		c12.1,0,18.9,7.4,18.9,17.4v29.5c0,0,1.4,3.8,2.9,3.8V261.4z M-40,294.9h140.1V155.2c-77.1,0-139.7,62.5-139.7,139.7 M25.5,220.2
		c-5.8,0-8.8,2.7-8.8,7.4c0,5.5,3.8,6.8,8.1,6.8h11.9v-5.7C36.8,222.4,31.7,220.2,25.5,220.2 M57.3,219.9c-5.4,0-10,3.2-10,8.8v5.8
		h20.1v-6.1C67.5,222.4,62.9,219.9,57.3,219.9"/>
</g>
</svg>
